HIERARCHY
ROOT Hips
{
  OFFSET 2.26061 22.2878 23.7974
  CHANNELS 6 Xposition Yposition Zposition Zrotation Xrotation Yrotation
  JOINT LeftUpLeg
  {
    OFFSET 8.64259 1.95398 -2.38835
    CHANNELS 3 Zrotation Xrotation Yrotation
    JOINT LeftLeg
    {
      OFFSET 43.7702 0 0
      CHANNELS 3 Zrotation Xrotation Yrotation
      JOINT LeftFoot
      {
        OFFSET 40.6238 0 0
        CHANNELS 3 Zrotation Xrotation Yrotation
        JOINT LeftToeBase
        {
          OFFSET 12.7242 0 0
          CHANNELS 3 Zrotation Xrotation Yrotation
          End Site
          {
            OFFSET 0 0 0
          }
        }
      }
    }
  }
  JOINT RightUpLeg
  {
    OFFSET -8.2249 1.95398 -2.59336
    CHANNELS 3 Zrotation Xrotation Yrotation
    JOINT RightLeg
    {
      OFFSET 43.5653 0 0
      CHANNELS 3 Zrotation Xrotation Yrotation
      JOINT RightFoot
      {
        OFFSET 40.6238 0 0
        CHANNELS 3 Zrotation Xrotation Yrotation
        JOINT RightToeBase
        {
          OFFSET 12.7242 0 0
          CHANNELS 3 Zrotation Xrotation Yrotation
          End Site
          {
            OFFSET 0 0 0
          }
        }
      }
    }
  }
  JOINT Spine
  {
    OFFSET 0.165834 0.87714 6.61349
    CHANNELS 3 Zrotation Xrotation Yrotation
    JOINT Spine1
    {
      OFFSET 7.38963 1.71661e-005 0
      CHANNELS 3 Zrotation Xrotation Yrotation
      JOINT Spine2
      {
        OFFSET 11.9445 1.14441e-005 0
        CHANNELS 3 Zrotation Xrotation Yrotation
        JOINT Spine3
        {
          OFFSET 14.7254 4.19617e-005 0
          CHANNELS 3 Zrotation Xrotation Yrotation
          JOINT Spine4
          {
            OFFSET 10.9679 0 0
            CHANNELS 3 Zrotation Xrotation Yrotation
            JOINT RightShoulder
            {
              OFFSET 2.46616 -1.6653 3.69651
              CHANNELS 3 Zrotation Xrotation Yrotation
              JOINT RightArm
              {
                OFFSET 13.0012 0 0
                CHANNELS 3 Zrotation Xrotation Yrotation
                JOINT RightForeArm
                {
                  OFFSET 28.7848 1.52588e-005 0
                  CHANNELS 3 Zrotation Xrotation Yrotation
                  JOINT RightHand
                  {
                    OFFSET 26.5688 1.52588e-005 0
                    CHANNELS 3 Zrotation Xrotation Yrotation
                    End Site
                    {
                      OFFSET 0 0 0
                    }
                  }
                }
              }
            }
            JOINT LeftShoulder
            {
              OFFSET 2.38034 -1.29275 -3.7523
              CHANNELS 3 Zrotation Xrotation Yrotation
              JOINT LeftArm
              {
                OFFSET 16.3182 6.10351e-005 0
                CHANNELS 3 Zrotation Xrotation Yrotation
                JOINT LeftForeArm
                {
                  OFFSET 27.0901 0 0
                  CHANNELS 3 Zrotation Xrotation Yrotation
                  JOINT LeftHand
                  {
                    OFFSET 24.5451 1.52588e-005 0
                    CHANNELS 3 Zrotation Xrotation Yrotation
                    End Site
                    {
                      OFFSET 0 0 0
                    }
                  }
                }
              }
            }
            JOINT Neck
            {
              OFFSET 5.0226 -0.0266342 0
              CHANNELS 3 Zrotation Xrotation Yrotation
              JOINT Head
              {
                OFFSET 6.69363 2.86102e-005 0
                CHANNELS 3 Zrotation Xrotation Yrotation
                End Site
                {
                  OFFSET 0 0 0
                }
              }
            }
          }
        }
      }
    }
  }
}
MOTION
Frames:	11
Frame Time:	0.0416667
-220.506 78.649 -209.337 87.1075 -16.0459 86.845 -179.003 -10.4937 106.613 -51.8678 44.8373 19.5642 59.7824 -2.53565 -2.82592 71.4172 31.099 -4.38479 156.168 55.6973 84.6431 -66.3887 -7.93898 10.8381 84.2313 -14.0786 -6.43985 162.154 -8.5692 -10.2726 -5.04033 7.7138 -90.2926 11.5069 -10.1648 0.455428 -0.124097 -10.1348 0.907052 -22.9676 -9.8269 -2.65122 -2.95499 -9.8269 -2.65122 90.0641 -51.6823 -100.343 29.4383 -17.9178 55.1635 -113.311 -7.40497 -88.7877 -76.0876 23.3148 -25.4254 -100.602 -49.938 63.1123 -8.36279 -5.11052 8.27417 -21.4143 1.58344 -111.192 9.22891 9.22852 73.103 9.36779 6.52011 0.374452 5.94806 6.6924 4.46293 
-216.661 82.3634 -204.823 86.575 -28.7816 85.0792 178.677 -6.99894 98.6798 -54.6537 33.1415 12.1764 49.6321 -7.9869 -5.85241 31.4983 1.15295 17.0114 164.051 52.7735 88.85 -66.7133 2.01981 8.39542 77.7775 -10.4319 -4.77953 52.0028 -0.984855 -14.8055 -3.67827 7.9549 -90.1137 11.0003 -7.37555 0.47431 -0.650116 -7.3475 0.800201 -23.3463 -7.17542 -1.77594 -3.33363 -7.1754 -1.77594 91.4066 -48.8627 -98.9043 31.6195 -15.1868 49.2281 -116.605 -23.9333 -99.6371 -97.2666 29.6173 -21.2949 -99.4916 -45.6249 63.0992 -13.0984 3.69788 7.51045 -2.77696 -3.39512 -108.434 21.4082 2.59884 12.0255 9.32229 6.44565 -1.54765 8.43552 7.30295 6.52735 
-212.13 84.5757 -200.163 83.066 -44.8772 81.8123 -178.117 3.77437 87.3223 -68.3692 16.2699 4.26378 50.389 -5.88271 -2.60201 37.5703 7.21983 12.1745 169.826 49.546 94.9508 -57.7466 4.35685 5.4835 67.8667 -3.95243 -2.2791 43.27 0.23404 -6.3621 -1.71755 7.80031 -89.9769 11.2803 -3.40734 0.385069 -0.386536 -3.38709 0.534815 -22.955 -3.3653 -0.657953 -2.9423 -3.3653 -0.657965 92.4277 -50.6773 -96.9692 27.9995 -14.6568 42.0187 -84.902 -24.4551 -87.8821 -68.866 39.4878 -52.4913 -101.062 -46.0776 60.917 -16.4246 13.9366 9.98697 10.5107 -8.67863 -96.4956 24.8963 0.532751 -1.91335 6.70231 5.68493 -0.275638 10.8248 6.4645 6.53143 
-205.705 85.7835 -193.056 82.5691 -50.8496 82.9497 -175.569 19.3311 91.5356 -78.1457 9.01014 2.10668 51.929 -1.73347 0.150482 40.2394 10.0241 15.2177 169.188 40.0565 98.8408 -55.4412 4.56453 5.4964 77.6961 -6.38722 -2.88954 29.6775 0.203936 -2.53493 -0.86476 7.95935 -90.256 10.9547 -1.84008 -0.335899 -0.714881 -1.85309 -0.25456 -23.2594 -1.65405 -0.873563 -3.24671 -1.65403 -0.873555 91.9545 -50.6361 -97.6987 24.9303 -15.1378 31.566 -47.5295 -20.6552 -77.831 -36.8983 22.0921 -61.4244 -102.088 -47.7613 60.0933 -19.3276 15.4588 13.3444 9.46996 0.135345 -84.4632 24.8264 0.995816 0.128763 5.42149 5.29543 3.95497 12.7472 5.09001 3.61852 
-198.315 84.8396 -184.36 83.0892 -54.2669 85.3612 -176.104 33.0905 92.2166 -82.9786 7.15975 2.21403 55.9623 2.16358 3.96912 42.9212 12.6376 14.4165 169.834 33.5466 101.464 -60.9661 4.76067 3.87228 84.638 -10.1947 -3.98187 32.3311 0.266748 -2.67361 -0.302303 8.22993 -90.6346 10.4079 -0.893038 -1.18251 -1.26324 -0.94421 -1.14208 -23.795 -0.496395 -1.3962 -3.78238 -0.496408 -1.39622 89.4622 -49.8155 -101.691 21.4514 -14.326 20.1254 -25.3571 -16.1665 -74.1585 -19.4248 4.82642 -30.4806 -103.445 -51.2448 59.5714 -21.2482 15.5436 17.179 8.76936 0.652456 -71.6684 26.8423 1.58866 2.06683 7.49439 5.17922 10.5819 12.9847 2.88678 -1.94116 
-190.692 83.7469 -175.474 81.1721 -60.9001 85.206 -176.654 45.9008 94.9083 -79.6373 3.85407 2.17188 61.8942 4.61581 1.78447 42.8261 13.0962 18.9777 173.711 26.5055 102.478 -63.043 4.48237 1.43709 89.1772 -13.7548 -4.77158 39.2704 0.413209 -3.55801 0.74073 8.38398 -90.5817 10.1146 1.21088 -1.26021 -1.55641 1.15426 -1.31228 -24.0942 1.53364 -0.838017 -4.08154 1.53366 -0.838018 88.1397 -51.8452 -103.189 16.4497 -15.1055 6.59765 -18.1652 -7.53561 -74.5846 -9.92205 -0.754688 -0.478518 -104.749 -51.366 57.7919 -25.0182 15.2949 25.432 6.97822 3.7272 -62.3923 33.1539 2.25464 2.95587 14.4659 4.42782 7.87947 6.90589 2.39241 -0.418261 
-182.803 82.9403 -165.226 75.923 -65.7694 77.2433 -175.538 54.8109 94.4277 -67.1679 0.816549 1.17596 63.2077 3.06915 0.0871624 44.94 15.1873 17.9146 176.175 19.4582 97.6482 -63.6888 2.22444 -1.58444 89.1216 -14.3764 -4.9908 48.8919 0.351126 -5.89966 1.45982 8.03325 -90.0689 10.8151 2.87487 -0.406938 -0.852749 2.85416 -0.533183 -23.413 2.86415 0.476617 -3.40034 2.86415 0.476614 89.5731 -46.9763 -102.214 19.9579 -16.884 -1.59679 -21.3147 -6.3052 -82.3494 -28.4086 -0.272103 -3.13043 -101.636 -49.8381 61.5902 -35.4181 20.1092 38.4471 4.64834 4.23878 -61.7904 36.8187 2.59124 3.15017 14.7737 3.72284 8.58653 4.39413 1.4928 -1.09647 
-173.878 82.8697 -153.608 77.7317 -69.4907 76.1189 -174.273 55.4113 95.7182 -47.5987 4.46355 -0.866668 55.61 -3.95062 -2.24788 40.0341 10.3399 21.9557 177.593 9.32746 88.9071 -62.8906 -5.69247 -5.59634 81.2605 -10.8257 -4.653 57.7566 0.0813986 -7.11858 2.2339 7.89049 -89.5793 11.0916 4.64193 0.390547 -0.571134 4.65461 0.185415 -23.165 4.30958 1.77009 -3.15232 4.30959 1.7701 91.6797 -40.7142 -100.322 27.2127 -19.5345 -3.85598 -25.4708 -0.286848 -92.5506 -32.5857 -0.815758 -1.09084 -97.2511 -44.3924 66.0626 -51.0185 21.3261 54.4291 5.01662 2.37955 -67.6511 31.9654 1.96345 2.19625 14.1056 1.64105 7.43488 2.79803 -0.256382 -1.89934 
-163.6 84.2218 -139.777 81.3205 -69.4323 76.4933 -172.971 48.0593 93.9274 -19.5615 9.78992 -2.53846 40.2055 -12.6963 -8.6701 35.9132 5.61435 22.2867 174.193 -2.85432 82.6765 -55.2347 -14.7972 -9.4062 59.7782 -1.51749 -0.852573 62.0938 1.62459 -0.265334 2.56181 7.70434 -88.9686 11.4366 5.57876 1.48945 -0.222892 5.63888 1.24176 -22.8288 4.87284 3.10042 -2.8162 4.87284 3.10042 92.4542 -33.8722 -100.724 35.9339 -23.9782 -2.39371 -28.5567 4.57875 -101.555 -33.3022 -0.535984 -2.00022 -93.9738 -35.8441 68.227 -65.0506 15.9852 65.5495 6.20058 0.746644 -72.7132 31.9062 1.75281 1.60235 11.1704 -0.749929 3.8946 2.1535 -1.67133 -2.29887 
-152.731 86.0893 -126.35 86.5811 -68.3454 82.1039 -171.483 41.9866 93.0013 -7.80298 4.4747 -4.19481 34.4418 -14.7386 -12.0679 37.8513 7.68331 17.9947 173.022 -11.5363 80.6553 -49.7202 -15.1602 -11.8348 42.91 4.89088 4.61777 37.9844 0.460508 -0.936377 2.67003 7.36607 -88.7685 12.1073 5.88992 1.82061 0.448864 5.96432 1.55878 -22.1609 5.07011 3.50994 -2.14829 5.07014 3.50995 94.0767 -30.9783 -98.3353 39.5134 -31.1302 -1.95278 -27.2566 5.94524 -103.471 -35.3486 -0.682839 -1.70602 -90.9438 -28.1827 70.8594 -71.5205 7.77252 69.5069 7.24524 0.336627 -74.8775 35.2135 1.61133 0.620677 5.19607 -2.4305 -4.87826 3.02011 -1.48977 2.06574 
-142.767 85.5855 -114.775 87.5364 -66.2267 88.5691 -170.803 43.5928 93.2868 -19.837 15.9656 -4.26419 40.6082 -12.3488 -7.61472 36.416 6.16121 12.1202 177.11 -6.15098 85.2417 -62.0599 6.8646 -7.42419 51.9652 -0.381632 0.0375683 36.246 0.353154 -7.63547 2.50276 6.87252 -89.2491 13.1209 5.32873 0.835067 1.4607 5.36029 0.599064 -21.1477 4.83091 2.40144 -1.13503 4.83093 2.40144 95.4854 -34.5723 -94.854 37.1017 -37.9751 -2.39453 -22.7537 -0.418501 -96.6778 -41.1958 -0.839774 -1.81442 -89.6428 -29.9329 73.9489 -64.045 1.37142 66.8855 3.04351 -1.18678 -76.1055 35.8366 1.47847 0.170543 0.360145 -2.32324 -7.84776 6.18105 -1.12282 2.72966 
